<svg width="400" height="100" viewBox="0 0 400 100" fill="none" xmlns="http://www.w3.org/2000/svg">
<path d="M320.046 39.68C320.046 39.0267 319.813 38.5133 319.346 38.14C318.893 37.7667 318.226 37.58 317.346 37.58C316.679 37.58 316.059 37.72 315.486 38C314.926 38.2667 314.406 38.78 313.926 39.54L312.746 38.74C313.639 36.94 315.133 36.04 317.226 36.04C317.893 36.04 318.499 36.1267 319.046 36.3C319.606 36.4733 320.079 36.72 320.466 37.04C320.866 37.36 321.173 37.7467 321.386 38.2C321.613 38.64 321.726 39.1267 321.726 39.66C321.726 40.5133 321.486 41.3867 321.006 42.28C320.539 43.16 319.946 44.0533 319.226 44.96C318.506 45.8667 317.719 46.78 316.866 47.7C316.026 48.6067 315.239 49.5067 314.506 50.4H322.406V52H312.186V50.4C312.919 49.5067 313.739 48.6 314.646 47.68C315.566 46.7467 316.426 45.8267 317.226 44.92C318.026 44 318.693 43.1 319.226 42.22C319.773 41.3267 320.046 40.48 320.046 39.68ZM330.361 36.08C331.148 36.08 331.868 36.2867 332.521 36.7C333.188 37.1 333.761 37.6667 334.241 38.4C334.721 39.1333 335.095 40.0133 335.361 41.04C335.641 42.0533 335.781 43.1667 335.781 44.38C335.781 45.5 335.648 46.5467 335.381 47.52C335.115 48.48 334.741 49.3133 334.261 50.02C333.781 50.7267 333.208 51.2867 332.541 51.7C331.875 52.1 331.148 52.3 330.361 52.3C329.575 52.3 328.848 52.1 328.181 51.7C327.528 51.3 326.961 50.7467 326.481 50.04C326.015 49.32 325.648 48.48 325.381 47.52C325.115 46.5467 324.981 45.5 324.981 44.38C324.981 43.1533 325.115 42.0333 325.381 41.02C325.648 39.9933 326.021 39.12 326.501 38.4C326.981 37.6667 327.548 37.1 328.201 36.7C328.868 36.2867 329.588 36.08 330.361 36.08ZM330.361 37.36C329.855 37.36 329.395 37.5267 328.981 37.86C328.568 38.1933 328.208 38.6667 327.901 39.28C327.608 39.8933 327.381 40.6333 327.221 41.5C327.061 42.3533 326.981 43.3133 326.981 44.38C326.981 45.1133 327.028 45.8 327.121 46.44C327.215 47.0667 327.355 47.64 327.541 48.16L332.541 38.72C331.941 37.8133 331.215 37.36 330.361 37.36ZM330.361 50.8C330.895 50.8 331.375 50.6467 331.801 50.34C332.228 50.02 332.588 49.58 332.881 49.02C333.188 48.4467 333.421 47.7667 333.581 46.98C333.755 46.1933 333.841 45.3267 333.841 44.38C333.841 43.58 333.795 42.8467 333.701 42.18C333.608 41.5133 333.468 40.9 333.281 40.34L328.401 49.78C328.961 50.46 329.615 50.8 330.361 50.8ZM346.437 39.68C346.437 39.0267 346.203 38.5133 345.737 38.14C345.283 37.7667 344.617 37.58 343.737 37.58C343.07 37.58 342.45 37.72 341.877 38C341.317 38.2667 340.797 38.78 340.317 39.54L339.137 38.74C340.03 36.94 341.523 36.04 343.617 36.04C344.283 36.04 344.89 36.1267 345.437 36.3C345.997 36.4733 346.47 36.72 346.857 37.04C347.257 37.36 347.563 37.7467 347.777 38.2C348.003 38.64 348.117 39.1267 348.117 39.66C348.117 40.5133 347.877 41.3867 347.397 42.28C346.93 43.16 346.337 44.0533 345.617 44.96C344.897 45.8667 344.11 46.78 343.257 47.7C342.417 48.6067 341.63 49.5067 340.897 50.4H348.797V52H338.577V50.4C339.31 49.5067 340.13 48.6 341.037 47.68C341.957 46.7467 342.817 45.8267 343.617 44.92C344.417 44 345.083 43.1 345.617 42.22C346.163 41.3267 346.437 40.48 346.437 39.68ZM353.712 44.24H352.192L352.832 36.4H360.672V37.8H354.392L353.952 42.8C354.139 42.4133 354.459 42.1133 354.912 41.9C355.365 41.6733 355.932 41.56 356.612 41.56C357.319 41.56 357.965 41.6867 358.552 41.94C359.139 42.18 359.639 42.5267 360.052 42.98C360.479 43.42 360.805 43.9533 361.032 44.58C361.259 45.2067 361.372 45.9 361.372 46.66C361.372 47.4733 361.252 48.2267 361.012 48.92C360.772 49.6133 360.432 50.2133 359.992 50.72C359.565 51.2133 359.059 51.6 358.472 51.88C357.885 52.16 357.239 52.3 356.532 52.3C354.985 52.3 353.505 51.5933 352.092 50.18L353.212 49.08C353.705 49.64 354.212 50.0467 354.732 50.3C355.265 50.5533 355.865 50.68 356.532 50.68C357.532 50.68 358.305 50.3333 358.852 49.64C359.412 48.9333 359.692 47.94 359.692 46.66C359.692 45.4867 359.405 44.6 358.832 44C358.259 43.3867 357.419 43.08 356.312 43.08C355.739 43.08 355.219 43.1867 354.752 43.4C354.285 43.6 353.939 43.88 353.712 44.24Z" fill="white"/>
<path d="M292.5 35C287.804 35 284 39.2512 284 44.5C284 49.7487 287.804 54 292.5 54C297.196 54 301 49.7487 301 44.5C301 39.2512 297.196 35 292.5 35ZM292.5 52.1C288.751 52.1 285.7 48.6895 285.7 44.5C285.7 40.3105 288.751 36.9 292.5 36.9C296.248 36.9 299.3 40.3105 299.3 44.5C299.3 48.6895 296.248 52.1 292.5 52.1ZM290.868 43.4217C290.915 43.113 291 42.8375 291.123 42.5952C291.246 42.353 291.416 42.1582 291.624 42.011C291.824 41.8732 292.075 41.7972 292.385 41.7925C292.589 41.7972 292.776 41.8352 292.938 41.916C293.112 42.0015 293.256 42.1155 293.38 42.258C293.503 42.4005 293.596 42.5715 293.664 42.7615C293.732 42.9515 293.771 43.1557 293.779 43.3695H295.301C295.288 42.923 295.207 42.5145 295.067 42.144C294.927 41.7735 294.723 41.4552 294.468 41.1845C294.213 40.9137 293.907 40.7095 293.55 40.5622C293.193 40.415 292.797 40.339 292.364 40.339C291.811 40.339 291.331 40.4435 290.923 40.6572C290.515 40.871 290.175 41.1607 289.903 41.5312C289.631 41.9017 289.427 42.3292 289.295 42.8185C289.164 43.3077 289.1 43.8255 289.1 44.3717V44.633C289.1 45.184 289.168 45.7017 289.3 46.191C289.431 46.6802 289.635 47.1078 289.907 47.4735C290.179 47.8393 290.519 48.129 290.932 48.3428C291.344 48.5565 291.824 48.661 292.377 48.661C292.776 48.661 293.15 48.5897 293.499 48.4425C293.847 48.2952 294.153 48.0957 294.417 47.8392C294.68 47.5828 294.893 47.2882 295.046 46.9462C295.199 46.6042 295.288 46.2432 295.301 45.8537H293.779C293.772 46.0424 293.73 46.2273 293.656 46.3966C293.581 46.566 293.475 46.716 293.346 46.837C293.218 46.9558 293.069 47.0508 292.899 47.1173C292.738 47.179 292.568 47.2123 292.385 47.2123C292.079 47.2028 291.828 47.1315 291.624 46.989C291.412 46.837 291.242 46.6422 291.119 46.4C290.995 46.1577 290.91 45.8822 290.864 45.5687C290.817 45.2552 290.8 44.9512 290.8 44.633V44.3717C290.8 44.0487 290.821 43.7305 290.868 43.4217Z" fill="white"/>
<path d="M13.8454 11.2216C13.1704 11.6466 12.8454 12.4966 13.0954 13.2216C13.1829 13.4716 17.0329 18.6091 21.658 24.634C26.2706 30.6465 30.1582 35.7715 30.2957 35.9965C30.5707 36.4465 30.6207 36.9215 30.4457 37.384C30.3832 37.5465 26.4831 42.709 21.758 48.859C16.3454 55.9215 13.1329 60.2089 13.0579 60.4839C12.7829 61.4714 13.5204 62.5089 14.5829 62.6714C14.8829 62.7089 17.2579 62.7339 19.8705 62.7089C23.7206 62.6839 24.6831 62.6339 24.9706 62.4839C25.4206 62.2714 44.0084 38.0465 44.2834 37.3465C44.4334 36.9465 44.4459 36.7715 44.3334 36.384C44.1834 35.9215 26.2706 12.4091 25.3581 11.4841L24.9331 11.0466L19.583 11.0091C14.4704 10.9841 14.2329 10.9966 13.8454 11.2216Z" fill="#00803E"/>
<path d="M60.9962 20.4841C60.8587 20.5341 60.5962 20.7466 60.4212 20.9341C59.9462 21.4591 18.7955 75.1839 18.4705 75.7214C18.1329 76.2464 18.0954 76.9589 18.3704 77.4839C18.4705 77.6839 18.908 78.1089 19.333 78.4464C20.083 79.0089 20.158 79.0464 20.883 79.0464C21.483 79.0464 21.7205 78.9839 21.933 78.7964C22.258 78.5089 63.7213 24.4341 64.1463 23.7466C64.4713 23.2216 64.5213 22.5091 64.2588 21.9966C64.0838 21.6716 63.0462 20.7966 62.4712 20.4966C62.1587 20.3341 61.3587 20.3216 60.9962 20.4841Z" fill="#58595B"/>
<path d="M57.8712 36.9216C57.5962 37.0216 57.3587 37.1091 57.3462 37.1091C57.2087 37.1216 38.4708 61.7715 38.3333 62.134C38.1833 62.5215 38.1708 62.6965 38.2833 63.084C38.4333 63.5465 56.3462 87.059 57.2587 87.984L57.6837 88.4215L62.9963 88.459C67.5964 88.484 68.3589 88.4715 68.6839 88.2965C69.3964 87.934 69.7714 86.9965 69.5214 86.2465C69.4339 85.9965 65.6463 80.959 61.1212 75.0465C56.5837 69.134 52.6961 64.0215 52.4711 63.684C52.0586 63.0715 51.9711 62.609 52.1711 62.084C52.2336 61.9215 56.1462 56.7591 60.8587 50.6091C66.2838 43.5341 69.4839 39.2591 69.5589 38.9841C69.7964 38.0966 69.2214 37.1216 68.2964 36.8591C68.0589 36.7841 65.8713 36.7341 63.1213 36.7341C59.3087 36.7466 58.2712 36.7841 57.8712 36.9216Z" fill="white"/>
<path d="M86.78 37.72C86.5 37.68 86.2333 37.66 85.98 37.66C85.4333 37.66 84.96 37.7733 84.56 38C84.1733 38.2133 83.98 38.6133 83.98 39.2C83.98 39.4667 84.02 39.7533 84.1 40.06C84.18 40.3667 84.2667 40.6933 84.36 41.04C84.4667 41.3867 84.56 41.7533 84.64 42.14C84.72 42.5133 84.76 42.9067 84.76 43.32C84.76 44.04 84.6 44.66 84.28 45.18C83.9733 45.7 83.4467 46.0267 82.7 46.16C83.0867 46.2267 83.4133 46.36 83.68 46.56C83.9467 46.7467 84.16 46.98 84.32 47.26C84.48 47.5267 84.5933 47.8267 84.66 48.16C84.7267 48.4933 84.76 48.8333 84.76 49.18C84.76 49.62 84.72 50.0133 84.64 50.36C84.56 50.7067 84.4667 51.0267 84.36 51.32C84.2667 51.6133 84.18 51.8933 84.1 52.16C84.02 52.4267 83.98 52.7067 83.98 53C83.98 53.64 84.1867 54.0867 84.6 54.34C85.0133 54.6067 85.5067 54.74 86.08 54.74C86.3067 54.74 86.54 54.72 86.78 54.68V56C86.6733 56.0133 86.5667 56.02 86.46 56.02C86.3667 56.02 86.2667 56.02 86.16 56.02C85.6133 56.02 85.1 55.9533 84.62 55.82C84.14 55.7 83.72 55.5067 83.36 55.24C83 54.9733 82.7133 54.64 82.5 54.24C82.3 53.84 82.2 53.36 82.2 52.8C82.2 52.4267 82.24 52.1067 82.32 51.84C82.4133 51.5733 82.5067 51.3133 82.6 51.06C82.7067 50.7933 82.8 50.5133 82.88 50.22C82.96 49.9267 83 49.5667 83 49.14C83 48.9133 82.9733 48.6733 82.92 48.42C82.88 48.1667 82.7667 47.9333 82.58 47.72C82.4067 47.5067 82.1467 47.3333 81.8 47.2C81.4533 47.0667 80.9867 47 80.4 47V45.4C80.9867 45.4 81.4467 45.3333 81.78 45.2C82.1267 45.0667 82.3867 44.9 82.56 44.7C82.7467 44.5 82.8667 44.2733 82.92 44.02C82.9733 43.7667 83 43.52 83 43.28C83 42.8667 82.96 42.4933 82.88 42.16C82.8 41.8267 82.7067 41.5067 82.6 41.2C82.5067 40.8933 82.4133 40.5933 82.32 40.3C82.24 39.9933 82.2 39.6667 82.2 39.32C82.2 38.8133 82.3 38.3733 82.5 38C82.7133 37.6267 82.9933 37.32 83.34 37.08C83.6867 36.84 84.1 36.6667 84.58 36.56C85.06 36.44 85.5667 36.38 86.1 36.38C86.2067 36.38 86.32 36.38 86.44 36.38C86.56 36.38 86.6733 36.3867 86.78 36.4V37.72ZM102.175 38.58C101.335 38.58 100.915 38.16 100.915 37.32C100.915 36.92 101.022 36.6133 101.235 36.4C101.462 36.1867 101.775 36.08 102.175 36.08C103.002 36.08 103.415 36.4933 103.415 37.32C103.415 38.16 103.002 38.58 102.175 38.58ZM99.1353 40.6H103.195L103.175 52C103.175 52.6667 103.062 53.26 102.835 53.78C102.622 54.3 102.329 54.74 101.955 55.1C101.582 55.46 101.155 55.7333 100.675 55.92C100.209 56.1067 99.722 56.2 99.2153 56.2C98.4686 56.2 97.742 55.9933 97.0353 55.58C96.3286 55.1667 95.762 54.4867 95.3353 53.54L96.8553 52.86C97.1086 53.4467 97.4486 53.8667 97.8753 54.12C98.3153 54.3867 98.7686 54.52 99.2353 54.52C99.5286 54.52 99.8086 54.4667 100.075 54.36C100.342 54.2667 100.575 54.1133 100.775 53.9C100.989 53.6867 101.155 53.42 101.275 53.1C101.409 52.7933 101.475 52.4267 101.475 52V42L99.1353 41.86V40.6ZM119.731 48.42L121.691 48.7C121.584 49.2467 121.384 49.74 121.091 50.18C120.797 50.62 120.431 51 119.991 51.32C119.564 51.6267 119.071 51.86 118.511 52.02C117.951 52.1933 117.344 52.28 116.691 52.28C115.037 52.28 113.764 51.7933 112.871 50.82C111.991 49.8333 111.551 48.4467 111.551 46.66C111.551 45.7533 111.657 44.9133 111.871 44.14C112.084 43.3533 112.404 42.68 112.831 42.12C113.257 41.5467 113.791 41.1 114.431 40.78C115.071 40.4467 115.824 40.28 116.691 40.28C117.237 40.28 117.764 40.36 118.271 40.52C118.791 40.6667 119.264 40.88 119.691 41.16C120.117 41.4267 120.484 41.7533 120.791 42.14C121.111 42.5267 121.344 42.9533 121.491 43.42L119.611 43.96C119.411 43.2933 119.037 42.78 118.491 42.42C117.957 42.06 117.357 41.88 116.691 41.88C115.571 41.88 114.751 42.3067 114.231 43.16C113.711 44.0133 113.451 45.18 113.451 46.66C113.451 47.9933 113.724 49 114.271 49.68C114.817 50.36 115.624 50.7 116.691 50.7C117.531 50.7 118.211 50.5133 118.731 50.14C119.251 49.7533 119.584 49.18 119.731 48.42ZM137.186 46.8H129.366V45.2H137.186V46.8ZM149.821 50.66C150.675 50.66 151.355 50.52 151.861 50.24C152.381 49.96 152.775 49.5133 153.041 48.9V44.04C152.668 43.32 152.181 42.7667 151.581 42.38C150.995 41.98 150.341 41.78 149.621 41.78C149.115 41.78 148.655 41.88 148.241 42.08C147.828 42.28 147.475 42.5667 147.181 42.94C146.888 43.3 146.661 43.74 146.501 44.26C146.341 44.7667 146.261 45.34 146.261 45.98C146.261 46.66 146.348 47.2867 146.521 47.86C146.695 48.4333 146.941 48.9267 147.261 49.34C147.581 49.7533 147.955 50.08 148.381 50.32C148.821 50.5467 149.301 50.66 149.821 50.66ZM154.861 52H153.041V51.14C152.175 51.9 151.101 52.28 149.821 52.28C149.035 52.28 148.315 52.1333 147.661 51.84C147.021 51.5333 146.468 51.1067 146.001 50.56C145.548 50 145.195 49.3333 144.941 48.56C144.688 47.7867 144.561 46.9267 144.561 45.98C144.561 44.1667 145.001 42.7667 145.881 41.78C146.761 40.78 148.008 40.28 149.621 40.28C150.381 40.28 151.035 40.42 151.581 40.7C152.128 40.98 152.615 41.4267 153.041 42.04V36.28L154.741 36.4V50.68C154.741 50.9067 154.741 51.1333 154.741 51.36C154.755 51.5867 154.795 51.8 154.861 52ZM163.097 45.58H169.417C169.483 44.3533 169.257 43.4133 168.737 42.76C168.217 42.1067 167.397 41.78 166.277 41.78C165.183 41.78 164.39 42.12 163.897 42.8C163.417 43.48 163.15 44.4067 163.097 45.58ZM166.457 40.28C168.083 40.28 169.303 40.7867 170.117 41.8C170.93 42.8 171.303 44.2333 171.237 46.1L171.197 47.08L163.077 47.12C163.077 47.6533 163.157 48.1467 163.317 48.6C163.49 49.04 163.723 49.42 164.017 49.74C164.323 50.06 164.683 50.3133 165.097 50.5C165.523 50.6733 165.99 50.76 166.497 50.76C167.003 50.76 167.53 50.6467 168.077 50.42C168.637 50.1933 169.237 49.7667 169.877 49.14L170.897 50.38C170.337 50.9933 169.683 51.4667 168.937 51.8C168.19 52.1333 167.397 52.3 166.557 52.3C165.797 52.3 165.097 52.1733 164.457 51.92C163.83 51.6667 163.283 51.3133 162.817 50.86C162.363 50.3933 162.01 49.8467 161.757 49.22C161.503 48.58 161.377 47.88 161.377 47.12V46.1C161.43 44.2467 161.877 42.8133 162.717 41.8C163.57 40.7867 164.817 40.28 166.457 40.28ZM186.172 40.6H187.972L183.612 52H181.912L177.872 40.6H179.672L182.792 49.34L186.172 40.6ZM196.207 45.58H202.527C202.594 44.3533 202.367 43.4133 201.847 42.76C201.327 42.1067 200.507 41.78 199.387 41.78C198.294 41.78 197.501 42.12 197.007 42.8C196.527 43.48 196.261 44.4067 196.207 45.58ZM199.567 40.28C201.194 40.28 202.414 40.7867 203.227 41.8C204.041 42.8 204.414 44.2333 204.347 46.1L204.307 47.08L196.187 47.12C196.187 47.6533 196.267 48.1467 196.427 48.6C196.601 49.04 196.834 49.42 197.127 49.74C197.434 50.06 197.794 50.3133 198.207 50.5C198.634 50.6733 199.101 50.76 199.607 50.76C200.114 50.76 200.641 50.6467 201.187 50.42C201.747 50.1933 202.347 49.7667 202.987 49.14L204.007 50.38C203.447 50.9933 202.794 51.4667 202.047 51.8C201.301 52.1333 200.507 52.3 199.667 52.3C198.907 52.3 198.207 52.1733 197.567 51.92C196.941 51.6667 196.394 51.3133 195.927 50.86C195.474 50.3933 195.121 49.8467 194.867 49.22C194.614 48.58 194.487 47.88 194.487 47.12V46.1C194.541 44.2467 194.987 42.8133 195.827 41.8C196.681 40.7867 197.927 40.28 199.567 40.28ZM220.303 50.68C220.303 50.9067 220.303 51.1333 220.303 51.36C220.316 51.5867 220.356 51.8 220.423 52H211.743V50.6H215.203V37.8L212.863 37.66V36.4H216.903V50.6H220.303V50.68ZM232.578 52.3C231.778 52.3 231.058 52.16 230.418 51.88C229.778 51.5867 229.224 51.1733 228.758 50.64C228.304 50.1067 227.951 49.4667 227.698 48.72C227.458 47.96 227.338 47.1133 227.338 46.18C227.338 45.2733 227.458 44.4533 227.698 43.72C227.951 42.9867 228.304 42.3667 228.758 41.86C229.211 41.3533 229.758 40.9667 230.398 40.7C231.051 40.42 231.778 40.28 232.578 40.28C233.378 40.28 234.104 40.42 234.758 40.7C235.411 40.98 235.964 41.38 236.418 41.9C236.884 42.4067 237.238 43.0267 237.478 43.76C237.731 44.48 237.858 45.2867 237.858 46.18C237.858 47.1 237.731 47.94 237.478 48.7C237.224 49.4467 236.864 50.0867 236.398 50.62C235.944 51.1533 235.391 51.5667 234.738 51.86C234.098 52.1533 233.378 52.3 232.578 52.3ZM232.578 50.84C233.631 50.84 234.451 50.4333 235.038 49.62C235.624 48.8067 235.918 47.66 235.918 46.18C235.918 44.7133 235.624 43.5933 235.038 42.82C234.451 42.0467 233.631 41.6667 232.578 41.68C231.564 41.6933 230.771 42.0867 230.198 42.86C229.624 43.6333 229.338 44.74 229.338 46.18C229.338 47.6333 229.624 48.7733 230.198 49.6C230.771 50.4267 231.564 50.84 232.578 50.84ZM249.073 50.66C249.593 50.66 250.066 50.5467 250.493 50.32C250.933 50.08 251.313 49.7533 251.633 49.34C251.953 48.9267 252.2 48.4333 252.373 47.86C252.546 47.2867 252.633 46.66 252.633 45.98C252.633 45.34 252.553 44.7667 252.393 44.26C252.233 43.74 252.006 43.3 251.713 42.94C251.42 42.5667 251.066 42.28 250.653 42.08C250.24 41.88 249.78 41.78 249.273 41.78C248.553 41.78 247.893 41.98 247.293 42.38C246.706 42.7667 246.226 43.32 245.853 44.04V48.9C246.12 49.5133 246.506 49.96 247.013 50.24C247.533 50.52 248.22 50.66 249.073 50.66ZM249.273 40.28C250.886 40.28 252.133 40.78 253.013 41.78C253.893 42.7667 254.333 44.1667 254.333 45.98C254.333 46.9267 254.206 47.7867 253.953 48.56C253.7 49.3333 253.34 50 252.873 50.56C252.42 51.1067 251.866 51.5333 251.213 51.84C250.573 52.1333 249.86 52.28 249.073 52.28C247.793 52.28 246.72 51.9 245.853 51.14V56L244.153 56.12V40.6H246.293C246.2 40.7333 246.1 40.9333 245.993 41.2C245.9 41.4667 245.853 41.7333 245.853 42V42.04C246.28 41.4267 246.766 40.98 247.313 40.7C247.86 40.42 248.513 40.28 249.273 40.28ZM262.528 37.72V36.4C262.635 36.3867 262.748 36.38 262.868 36.38C262.988 36.38 263.102 36.38 263.208 36.38C263.755 36.38 264.262 36.44 264.728 36.56C265.208 36.6667 265.622 36.84 265.968 37.08C266.315 37.32 266.588 37.6267 266.788 38C267.002 38.3733 267.108 38.8133 267.108 39.32C267.108 39.6667 267.068 39.9933 266.988 40.3C266.908 40.5933 266.815 40.8933 266.708 41.2C266.615 41.5067 266.522 41.8267 266.428 42.16C266.348 42.4933 266.308 42.8667 266.308 43.28C266.308 43.52 266.335 43.7667 266.388 44.02C266.442 44.2733 266.555 44.5 266.728 44.7C266.915 44.9 267.175 45.0667 267.508 45.2C267.855 45.3333 268.322 45.4 268.908 45.4V47C268.322 47 267.855 47.0667 267.508 47.2C267.162 47.3333 266.895 47.5067 266.708 47.72C266.535 47.9333 266.422 48.1667 266.368 48.42C266.328 48.6733 266.308 48.9133 266.308 49.14C266.308 49.5667 266.348 49.9267 266.428 50.22C266.522 50.5133 266.615 50.7933 266.708 51.06C266.815 51.3133 266.908 51.5733 266.988 51.84C267.068 52.1067 267.108 52.4267 267.108 52.8C267.108 53.36 267.002 53.84 266.788 54.24C266.588 54.64 266.308 54.9733 265.948 55.24C265.588 55.5067 265.168 55.7 264.688 55.82C264.208 55.9533 263.695 56.02 263.148 56.02C263.042 56.02 262.935 56.02 262.828 56.02C262.735 56.02 262.635 56.0133 262.528 56V54.68C262.768 54.72 263.002 54.74 263.228 54.74C263.802 54.74 264.295 54.6067 264.708 54.34C265.122 54.0867 265.328 53.64 265.328 53C265.328 52.7067 265.288 52.4267 265.208 52.16C265.128 51.8933 265.035 51.6133 264.928 51.32C264.835 51.0267 264.748 50.7067 264.668 50.36C264.588 50.0133 264.548 49.62 264.548 49.18C264.548 48.8333 264.582 48.4933 264.648 48.16C264.715 47.8267 264.828 47.5267 264.988 47.26C265.148 46.98 265.362 46.7467 265.628 46.56C265.895 46.36 266.222 46.2267 266.608 46.16C265.862 46.0267 265.328 45.7 265.008 45.18C264.702 44.66 264.548 44.04 264.548 43.32C264.548 42.9067 264.588 42.5133 264.668 42.14C264.748 41.7533 264.835 41.3867 264.928 41.04C265.035 40.6933 265.128 40.3667 265.208 40.06C265.288 39.7533 265.328 39.4667 265.328 39.2C265.328 38.6133 265.128 38.2133 264.728 38C264.342 37.7733 263.875 37.66 263.328 37.66C263.075 37.66 262.808 37.68 262.528 37.72Z" fill="white"/>
</svg>
